<?xml version="1.0" standalone="no"?>
<!DOCTYPE svg PUBLIC "-//W3C//DTD SVG 20010904//EN"
 "http://www.w3.org/TR/2001/REC-SVG-20010904/DTD/svg10.dtd">
<svg version="1.0" xmlns="http://www.w3.org/2000/svg"
 width="1024.000000pt" height="1024.000000pt" viewBox="0 0 1024.000000 1024.000000"
 preserveAspectRatio="xMidYMid meet">

<g transform="translate(0.000000,1024.000000) scale(0.100000,-0.100000)"
fill="#000000" stroke="none">
<path d="M0 5121 l0 -5121 5120 0 5120 0 0 5115 0 5115 -577 2 c-318 2 -2622
4 -5120 6 l-4543 3 0 -5120z m5350 3962 c74 -30 160 -68 190 -84 103 -52 731
-359 736 -359 2 0 57 -25 122 -56 258 -124 374 -179 522 -246 195 -88 302
-142 363 -182 49 -32 114 -116 137 -176 16 -44 26 -642 11 -710 -7 -32 -8 16
-4 160 3 113 0 275 -5 362 -12 179 -28 225 -107 302 -43 43 -277 169 -390 211
-27 10 -173 78 -324 152 -151 73 -275 133 -277 133 -7 0 -217 101 -449 215
-340 167 -481 235 -488 235 -4 0 -30 11 -59 24 -29 13 -84 34 -122 47 l-68 22
-71 -21 c-40 -11 -73 -19 -75 -17 -2 1 30 14 70 29 94 33 118 29 288 -41z
m-96 -113 c94 -37 344 -157 778 -372 185 -91 421 -206 525 -254 103 -47 249
-116 323 -152 74 -35 154 -73 177 -83 23 -10 80 -41 127 -69 68 -41 87 -57 94
-83 15 -48 25 -1344 12 -1557 -17 -290 -46 -446 -131 -702 -100 -305 -243
-548 -524 -893 -115 -142 -408 -420 -431 -411 -8 3 -13 2 -10 -3 3 -5 -18 -27
-48 -50 -51 -40 -73 -51 -61 -31 7 11 -91 -52 -125 -80 -24 -21 -24 -21 15 1
22 12 55 34 74 47 19 14 31 20 27 14 -16 -26 -202 -148 -226 -149 -15 0 -160
-81 -160 -89 0 -3 9 0 19 6 11 5 23 10 28 10 4 -1 -3 -7 -16 -14 -14 -8 -30
-12 -35 -10 -14 5 -182 -82 -179 -93 1 -4 -11 -9 -25 -9 -30 -2 -231 -92 -304
-138 -14 -8 -20 -7 -30 7 -7 9 -67 36 -133 60 -164 60 -428 197 -557 290 -29
20 -84 58 -123 83 -171 113 -383 305 -606 549 -221 242 -431 586 -525 858
-102 294 -144 500 -165 814 -11 170 -18 217 -20 127 -1 -42 -2 -45 -9 -21 -11
37 -12 1000 -1 1208 5 92 14 176 20 187 25 46 155 115 861 454 69 33 296 143
505 243 575 276 704 334 757 335 15 0 61 -13 102 -30z m-2965 -1097 c46 -35
66 -71 65 -118 -1 -68 -32 -116 -91 -145 l-51 -25 25 -50 c14 -28 65 -90 113
-140 48 -49 105 -112 125 -140 l38 -50 118 -5 119 -5 -24 -30 -24 -30 -114 3
c-90 2 -115 6 -123 18 -33 52 -101 130 -173 199 -90 85 -106 109 -118 170 -5
29 -20 52 -55 85 -56 53 -76 108 -60 168 11 40 60 94 101 111 34 15 98 6 129
-16z m5877 6 c46 -22 84 -82 84 -132 0 -65 -58 -147 -103 -147 -12 0 -16 -10
-15 -39 0 -49 -21 -80 -99 -146 -68 -58 -137 -126 -212 -209 -61 -68 -79 -74
-248 -75 l-93 -1 0 34 c0 32 2 34 46 40 26 3 83 6 127 6 l80 0 101 103 c56 56
127 125 159 154 51 45 57 55 57 90 0 34 -4 40 -39 60 -46 26 -71 74 -71 137 0
37 6 52 32 82 57 65 120 79 194 43z m-6741 -58 c75 -35 108 -90 104 -177 l-3
-51 125 -129 c68 -71 214 -218 324 -326 l200 -197 267 -1 c146 0 273 -3 282
-6 14 -5 14 -9 1 -34 l-14 -27 -283 -5 -283 -5 -169 171 c-93 94 -242 247
-332 341 -129 134 -165 167 -176 158 -7 -6 -34 -17 -60 -23 -78 -20 -142 9
-179 82 -47 92 2 209 100 238 40 12 53 11 96 -9z m7598 -7 c68 -34 107 -88
107 -146 -1 -53 -34 -114 -82 -148 -39 -29 -48 -31 -96 -27 -29 3 -69 15 -88
26 l-34 20 -224 -227 c-123 -125 -272 -277 -332 -338 l-109 -112 -335 5 c-184
2 -341 6 -347 8 -7 3 -13 18 -13 35 l0 31 331 -1 332 -1 316 321 c174 176 322
320 329 320 9 0 11 17 6 68 -5 60 -3 71 18 102 51 76 144 102 221 64z m-7700
-618 c43 -17 93 -76 108 -126 7 -22 20 -42 29 -45 9 -3 138 -126 288 -273
l271 -268 343 -2 c189 -2 351 -5 361 -8 10 -3 17 -15 17 -29 0 -21 -6 -24 -57
-31 -32 -4 -202 -4 -377 -1 l-319 6 -250 248 c-138 136 -262 262 -276 278
l-25 31 -40 -44 c-53 -58 -89 -75 -142 -69 -61 7 -130 43 -143 75 -33 84 -21
141 45 206 60 61 110 76 167 52z m7740 3 c87 -24 146 -113 131 -197 -9 -51
-82 -122 -127 -123 -91 -3 -141 14 -182 63 -16 19 -29 26 -38 21 -7 -4 -58
-55 -112 -113 -54 -58 -170 -178 -257 -267 l-158 -163 -168 0 c-93 0 -284 -3
-425 -7 l-257 -6 0 35 0 35 83 6 c45 4 229 7 408 7 l326 0 49 53 c26 28 151
157 276 285 125 128 228 241 228 251 0 32 44 86 90 109 49 25 77 27 133 11z
m-1636 -151 c-3 -7 -5 -2 -5 12 0 14 2 19 5 13 2 -7 2 -19 0 -25z m809 -354
c103 -6 125 -14 108 -41 -10 -17 -40 -18 -440 -18 l-429 0 -3 32 c-3 28 0 32
25 36 36 5 620 -2 739 -9z m-5514 0 c32 -6 36 -9 28 -24 -5 -10 -7 -20 -3 -23
10 -10 -37 -16 -185 -21 -159 -6 -322 2 -322 16 0 24 37 43 94 49 85 8 343 10
388 3z m6532 -248 c80 -60 101 -154 50 -215 -14 -17 -23 -31 -19 -31 16 0 -52
-51 -74 -56 -14 -3 -34 -9 -43 -15 -10 -5 -18 -6 -18 -1 0 4 -29 6 -63 4 -65
-4 -109 9 -136 42 -11 13 -100 14 -757 9 l-744 -6 0 35 0 35 618 7 c339 3 665
9 724 12 l106 7 6 41 c6 40 35 130 36 112 0 -5 10 0 23 12 36 34 67 42 163 39
83 -2 94 -5 128 -31z m-7934 -31 c33 -17 62 -55 80 -107 l13 -36 111 -6 c177
-10 813 -26 1030 -26 174 0 197 -2 192 -15 -3 -9 1 -18 10 -22 13 -5 13 -7 2
-14 -19 -12 -833 -11 -1124 2 -231 10 -247 9 -271 -8 -64 -45 -80 -53 -113
-53 -46 0 -111 31 -138 65 -26 33 -29 102 -7 146 9 16 34 43 57 59 47 34 109
40 158 15z m1472 -419 c17 -8 14 -34 -6 -48 -6 -4 -224 -8 -484 -8 l-473 0
-67 -71 -67 -71 -127 4 c-102 3 -128 1 -128 -10 0 -28 -42 -94 -73 -112 -66
-41 -167 -15 -199 50 -36 71 -8 182 56 221 62 38 136 20 194 -45 l31 -36 110
0 c122 0 115 -3 213 95 l48 47 477 -4 c263 -3 486 -8 495 -12z m5808 -60 l71
-69 97 7 c94 7 98 8 125 41 51 62 128 69 195 19 91 -70 97 -176 13 -247 -82
-69 -201 -32 -232 72 l-11 38 -114 -5 -113 -5 -33 34 c-18 19 -47 52 -64 74
l-31 40 -547 3 -546 3 0 28 c0 15 3 31 7 35 4 3 255 5 559 4 l552 -3 72 -69z
m-5860 -143 c71 -4 95 -9 75 -13 -27 -6 -28 -8 -10 -15 11 -5 26 -15 34 -22
11 -11 -59 -13 -420 -12 l-434 1 -164 -149 c-352 -316 -380 -345 -381 -381 0
-45 -23 -86 -66 -119 -51 -39 -142 -44 -199 -11 -58 34 -85 80 -85 145 0 73
23 119 79 154 73 47 148 36 224 -31 l37 -32 127 120 c71 66 192 178 270 249
l143 128 332 -3 c183 -1 380 -5 438 -9z m5722 -110 c78 -71 186 -169 238 -218
52 -50 110 -103 128 -120 l32 -29 39 38 c85 83 216 65 277 -40 23 -38 26 -54
22 -104 -4 -52 -9 -65 -39 -96 -46 -49 -79 -64 -136 -64 -93 0 -154 55 -167
149 -5 39 -11 51 -29 57 -20 6 -154 128 -413 377 l-102 97 -481 0 c-292 0
-481 4 -481 9 0 5 4 21 10 35 l9 26 278 3 c153 1 367 3 475 5 l197 2 143 -127z
m-373 -199 c31 -7 111 -83 235 -224 55 -63 144 -160 196 -215 52 -55 130 -139
173 -185 43 -47 95 -97 115 -112 32 -25 37 -26 52 -13 22 20 131 20 169 0 16
-8 40 -28 55 -45 94 -112 10 -283 -139 -282 -69 0 -108 22 -139 75 -28 47 -34
90 -22 153 6 36 5 41 -18 53 -29 16 -325 323 -498 516 -64 72 -135 149 -159
172 l-44 42 -407 3 c-223 2 -409 6 -413 9 -3 4 0 22 8 40 l14 34 399 -8 c219
-4 410 -10 423 -13z m-5250 6 c68 0 121 -3 118 -7 -4 -3 -2 -12 4 -19 24 -29
-49 -36 -411 -41 l-315 -4 -105 -102 c-58 -56 -191 -194 -297 -307 -105 -113
-219 -231 -253 -263 -53 -48 -60 -60 -53 -79 4 -13 8 -48 8 -80 0 -47 -5 -63
-31 -99 -57 -79 -121 -95 -208 -54 -58 28 -86 77 -86 151 0 70 23 113 79 151
40 27 111 31 155 8 l29 -16 152 158 c83 87 171 181 195 208 24 28 121 128 214
222 l170 173 221 3 c121 2 236 2 255 0 19 -1 91 -3 159 -3z m461 -95 c0 -6 12
-32 26 -59 14 -26 21 -45 15 -41 -13 7 -55 88 -66 125 -7 24 -7 24 9 5 8 -11
16 -25 16 -30z m4544 -280 c34 -38 133 -143 221 -232 183 -186 206 -223 139
-223 -20 0 -77 51 -250 223 l-225 224 -127 6 c-70 4 -216 7 -324 7 l-198 0 11
27 c6 15 14 32 19 38 5 7 118 8 341 5 l332 -5 61 -70z m-4765 66 c9 -6 11 -18
7 -35 l-6 -26 -158 -1 c-86 -1 -203 -4 -259 -8 l-102 -6 -219 -217 c-226 -223
-262 -250 -262 -190 0 22 40 67 230 254 188 185 237 228 263 231 65 8 492 6
506 -2z m547 -293 c31 -40 44 -60 27 -45 -30 28 -98 117 -90 117 3 0 31 -33
63 -72z m-428 -14 c72 -6 73 -6 52 -24 -12 -11 -19 -24 -15 -29 4 -8 -61 -11
-208 -11 l-214 0 -123 -132 c-68 -73 -166 -175 -218 -225 -91 -88 -95 -94 -84
-118 45 -98 -32 -222 -134 -218 -55 2 -128 43 -155 86 -27 45 -25 110 6 162
40 69 115 92 193 60 l37 -16 130 133 c72 73 176 181 232 241 l102 107 163 -5
c90 -3 196 -8 236 -11z m4507 -183 c252 -251 269 -265 294 -252 28 16 117 14
149 -3 52 -27 75 -62 80 -120 10 -123 -87 -201 -219 -176 -80 15 -104 44 -104
123 0 34 3 71 7 82 7 17 -28 56 -212 240 l-220 220 -299 3 -299 4 9 31 c5 17
13 33 19 37 5 3 143 4 307 3 l298 -3 190 -189z m-3995 94 c13 -14 21 -25 18
-25 -2 0 -15 11 -28 25 -13 14 -21 25 -18 25 2 0 15 -11 28 -25z m70 -80 c13
-14 21 -25 18 -25 -2 0 -15 11 -28 25 -13 14 -21 25 -18 25 2 0 15 -11 28 -25z
m96 -97 l29 -33 -32 29 c-31 28 -38 36 -30 36 2 0 16 -15 33 -32z m59 -58 c10
-11 16 -20 13 -20 -3 0 -13 9 -23 20 -10 11 -16 20 -13 20 3 0 13 -9 23 -20z
m146 -137 c13 -16 12 -17 -3 -4 -17 13 -22 21 -14 21 2 0 10 -8 17 -17z m1489
-437 c0 -2 -7 -7 -16 -10 -8 -3 -12 -2 -9 4 6 10 25 14 25 6z m993 -760 c67
-28 83 -63 151 -329 20 -76 47 -188 61 -250 14 -62 36 -150 49 -197 13 -47 46
-173 72 -280 46 -188 132 -463 133 -427 1 13 11 17 49 18 99 3 148 0 187 -12
22 -6 46 -13 54 -15 8 -3 11 -7 8 -10 -8 -8 -1956 -12 -3058 -6 l-966 5 9 49
c5 27 26 111 48 186 21 75 48 182 59 237 12 55 35 152 50 215 16 63 35 142 41
175 27 140 131 549 146 575 9 15 35 39 57 54 l41 26 1388 0 c1154 0 1394 -2
1421 -14z m-1385 -1593 c-10 -2 -28 -2 -40 0 -13 2 -5 4 17 4 22 1 32 -1 23
-4z m2227 -67 c-12 -107 -60 -177 -157 -225 l-61 -31 -2009 0 c-1105 1 -2015
3 -2023 7 -8 3 -15 13 -15 24 0 13 -11 21 -38 28 -21 6 -46 17 -57 25 -29 22
-36 19 -29 -9 4 -16 2 -25 -6 -25 -6 0 -8 4 -5 10 3 5 0 8 -7 5 -18 -7 -64 38
-88 86 -12 22 -24 69 -27 105 l-6 64 880 0 881 -1 52 -60 53 -61 376 4 c423 3
409 1 453 78 l23 40 900 2 c495 2 904 1 909 -1 4 -2 5 -31 1 -65z m-164 -436
c11 -8 11 -10 -1 -13 -8 -2 -31 -9 -50 -15 -21 -7 -106 -11 -210 -10 -97 1
-180 -1 -185 -4 -25 -14 -259 -19 -1000 -20 -535 0 -833 3 -900 11 -55 6 -137
13 -182 14 -80 3 -104 9 -89 25 11 10 2216 9 2216 -2 0 -4 12 -6 28 -2 15 3
62 8 105 10 43 2 81 7 84 10 9 9 168 5 184 -4z"/>
<path d="M5145 8719 c-4 -5 2 -9 12 -9 10 -1 35 -7 55 -14 21 -8 35 -10 33 -6
-9 14 -94 39 -100 29z"/>
<path d="M5075 8671 c-70 -28 -155 -68 -445 -208 -702 -340 -991 -474 -1008
-469 -9 3 -33 -4 -52 -14 -42 -23 -32 -27 11 -4 17 8 33 14 35 12 5 -6 -186
-99 -262 -129 l-61 -24 -6 -239 c-10 -356 -8 -894 3 -1068 15 -227 27 -314 65
-476 83 -361 215 -635 464 -972 165 -223 403 -456 638 -623 212 -150 438 -275
595 -328 l96 -32 72 23 c125 40 357 162 530 277 451 302 807 709 1034 1183 66
138 147 376 175 516 47 229 51 318 51 1041 0 536 3 682 13 686 23 8 -11 35
-38 29 -17 -3 -54 10 -108 36 -204 99 -339 164 -427 205 -297 140 -451 218
-446 226 3 5 -1 12 -10 15 -8 3 -12 2 -9 -4 3 -6 4 -10 2 -10 -2 0 -94 43
-203 96 -109 52 -218 104 -242 116 -24 11 -39 24 -35 30 4 7 1 8 -6 3 -7 -4
-30 1 -52 10 -50 23 -45 31 5 10 21 -9 35 -12 32 -6 -8 12 -76 35 -83 27 -3
-3 -22 2 -42 10 -85 37 -204 84 -210 84 -3 -1 -37 -13 -76 -29z m-85 -161
c-19 -11 -39 -19 -45 -19 -5 0 6 8 25 19 19 11 40 19 45 19 6 0 -6 -8 -25 -19z
m237 -92 c70 -48 83 -148 25 -198 -16 -14 -36 -29 -44 -35 -13 -8 -15 -26 -11
-101 l5 -92 87 -40 c47 -23 104 -48 126 -57 43 -17 235 -121 403 -217 56 -32
108 -56 114 -52 6 4 8 3 5 -3 -6 -10 55 -50 198 -130 l60 -34 -30 29 c-16 16
-32 28 -34 26 -2 -2 -26 13 -55 32 -28 18 -55 34 -59 34 -14 0 -69 42 -63 48
3 3 1 11 -5 18 -10 13 -2 64 11 64 18 0 80 68 75 82 -4 9 0 18 9 21 9 4 16 14
16 22 0 9 4 14 9 10 5 -3 9 8 9 25 -1 38 5 45 25 25 9 -8 22 -15 29 -15 8 0 7
4 -4 11 -26 14 -23 32 2 19 11 -6 25 -8 30 -5 6 4 24 -1 42 -9 17 -9 37 -16
45 -16 7 0 23 -11 35 -25 12 -14 25 -25 30 -25 5 0 40 -16 79 -35 39 -19 80
-35 90 -35 31 0 87 -32 94 -54 12 -36 11 -41 -15 -47 -21 -6 -19 -7 13 -8 84
-2 137 -55 137 -135 0 -132 -135 -190 -225 -96 -36 37 -45 112 -21 161 11 21
13 36 6 41 -5 4 -8 6 -6 3 2 -4 -15 -27 -38 -52 -22 -25 -40 -50 -39 -54 2 -5
-2 -9 -7 -9 -6 0 -10 -9 -10 -20 0 -11 -4 -20 -10 -20 -24 0 -31 -51 -34 -240
l-3 -199 48 -16 c70 -24 67 -47 -9 -64 -32 -7 -72 -11 -88 -9 l-29 3 4 190 c4
221 17 194 -129 275 -52 29 -113 66 -135 80 -112 76 -525 310 -688 391 -114
57 -130 62 -155 52 -15 -6 -49 -20 -77 -31 -27 -12 -79 -31 -115 -44 -36 -12
-94 -42 -130 -67 -36 -24 -121 -77 -190 -116 -253 -145 -516 -307 -545 -335
-27 -28 -30 -36 -36 -132 -6 -102 -14 -138 -29 -138 -9 0 -17 75 -23 209 l-4
83 46 37 c26 20 107 72 181 115 74 44 189 112 255 151 264 157 354 205 451
239 56 19 125 46 153 60 l51 26 0 95 c0 91 -1 96 -23 104 -13 5 -38 25 -55 45
-37 43 -43 99 -15 147 35 59 130 77 190 37z m-467 -12 c0 -2 -7 -7 -16 -10 -8
-3 -12 -2 -9 4 6 10 25 14 25 6z m-135 -66 c-3 -5 -12 -10 -18 -10 -7 0 -6 4
3 10 19 12 23 12 15 0z m-40 -20 c-3 -5 -12 -10 -18 -10 -7 0 -6 4 3 10 19 12
23 12 15 0z m-40 -20 c-3 -5 -12 -10 -18 -10 -7 0 -6 4 3 10 19 12 23 12 15 0z
m-35 -14 c0 -5 -110 -56 -119 -55 -5 0 110 59 117 59 1 0 2 -2 2 -4z m-135
-66 c-3 -5 -12 -10 -18 -10 -7 0 -6 4 3 10 19 12 23 12 15 0z m484 -28 c39
-29 62 -79 50 -111 -35 -91 -139 -117 -208 -52 -25 23 -31 37 -31 69 0 43 35
96 74 113 29 12 86 3 115 -19z m-524 9 c-6 -6 -28 -17 -50 -27 -49 -20 -39 -7
13 17 44 21 49 22 37 10z m1237 -41 c48 -51 51 -89 9 -131 -34 -34 -54 -36
-98 -9 -56 34 -63 110 -13 160 30 30 59 25 102 -20z m-1392 -35 c0 -6 -56 -35
-67 -35 -4 1 8 9 27 20 39 22 40 22 40 15z m290 -81 c45 -27 63 -67 55 -123
-4 -27 -15 -62 -26 -80 -16 -27 -24 -31 -60 -31 -76 0 -129 52 -129 127 0 93
85 151 160 107z m1575 -49 c68 -67 -7 -215 -110 -215 -36 0 -48 5 -69 31 -21
25 -26 41 -26 88 0 47 4 61 23 78 37 33 60 42 110 43 38 0 53 -5 72 -25z
m-2175 -19 c0 -2 -7 -7 -16 -10 -8 -3 -12 -2 -9 4 6 10 25 14 25 6z m-80 -41
c-25 -13 -49 -24 -55 -24 -5 0 10 11 35 24 25 13 50 24 55 24 6 0 -10 -11 -35
-24z m-75 -35 c-3 -5 -12 -10 -18 -10 -7 0 -6 4 3 10 19 12 23 12 15 0z m1378
-149 c-2 -9 -32 -32 -66 -51 -34 -18 -132 -79 -217 -135 -85 -56 -207 -132
-270 -170 -63 -37 -157 -95 -207 -127 l-93 -60 0 -522 c0 -286 4 -525 8 -531
4 -5 23 -17 42 -26 19 -9 85 -52 147 -95 62 -44 127 -88 145 -99 l33 -20 1
-693 0 -693 -20 3 c-16 2 -22 13 -28 48 -3 25 -7 313 -7 641 -1 328 -4 611 -7
628 -6 26 -25 44 -123 110 -64 43 -144 92 -178 110 -68 34 -71 39 -75 130 l-3
53 -145 0 -144 -1 -12 -41 c-16 -54 -29 -68 -76 -80 -71 -20 -133 16 -157 91
-10 30 -9 44 5 78 22 54 56 81 106 81 46 0 75 -14 101 -47 18 -22 23 -23 173
-23 l154 0 0 89 0 89 -83 7 c-46 4 -215 5 -375 4 -254 -4 -292 -2 -292 11 0 8
-3 26 -7 39 l-6 23 379 -3 379 -4 3 78 3 77 -380 0 c-377 0 -380 0 -386 21 -4
12 -3 25 2 29 4 5 176 10 381 11 l372 3 0 88 0 87 -82 -5 c-46 -3 -117 -2
-158 3 -41 5 -97 5 -124 0 -85 -14 -153 39 -163 127 -6 53 11 86 60 116 98 60
200 -25 181 -150 l-6 -35 139 3 c76 1 144 5 151 7 8 3 12 34 12 109 l0 104 73
55 c147 112 528 335 612 358 20 6 51 24 68 41 46 44 110 95 127 101 19 6 39
-19 33 -42z m-1659 11 c-19 -15 -23 -31 -29 -142 -4 -69 -11 -291 -15 -495
l-8 -370 4 460 c2 253 7 479 10 501 4 29 13 45 28 52 31 15 34 14 10 -6z
m1919 -43 c37 -10 121 -57 422 -235 234 -138 348 -208 362 -222 9 -10 13 -46
13 -127 l0 -113 40 -7 c36 -6 40 -10 40 -36 0 -26 -3 -29 -35 -29 l-35 0 0
-85 0 -85 33 0 c48 0 55 9 62 77 6 50 11 64 28 69 12 4 23 1 28 -7 13 -21 11
-97 -3 -102 -43 -15 38 -23 295 -28 161 -3 293 -6 295 -7 1 -1 2 -15 2 -32 l0
-30 -372 -2 -373 -3 -3 -84 c-3 -83 -3 -84 20 -77 13 3 35 6 49 6 24 0 27 4
32 45 2 26 8 49 11 52 12 12 26 -14 28 -50 l1 -37 226 0 c124 0 257 -3 294 -7
l68 -6 -3 -30 -3 -30 -188 2 c-103 1 -266 -1 -362 -5 l-175 -7 0 -89 0 -89 47
3 48 3 7 50 c4 27 10 61 13 74 6 22 7 23 22 8 11 -11 17 -36 18 -74 l2 -58 59
-3 c32 -2 64 -8 70 -13 9 -7 14 -5 18 9 4 10 20 31 36 47 23 22 39 28 74 29
38 1 50 -4 80 -33 53 -52 63 -91 36 -146 -38 -79 -95 -104 -160 -70 -31 16
-64 64 -75 108 -6 20 -11 25 -18 18 -6 -6 -23 -11 -38 -11 -14 0 -39 -3 -55
-6 l-29 -6 3 -146 4 -147 -79 -51 c-43 -27 -117 -81 -165 -118 l-88 -67 0
-219 0 -218 37 -7 c85 -16 133 -67 133 -140 0 -78 -59 -138 -135 -138 -106 0
-167 109 -115 206 19 35 20 53 18 290 l-3 252 45 39 c38 34 191 149 268 201
21 15 22 23 22 135 0 134 -4 150 -34 150 -42 0 -66 -27 -66 -75 0 -71 -13 -91
-79 -124 -32 -16 -110 -66 -173 -110 l-113 -82 -5 -656 c-5 -603 -6 -657 -22
-667 -9 -5 -21 -7 -25 -2 -4 4 -9 313 -11 686 l-3 679 78 52 c43 29 106 74
140 100 34 26 77 53 96 60 l34 12 6 246 c4 135 7 378 7 538 l0 293 -27 16
c-16 10 -62 38 -103 64 -41 26 -127 78 -190 115 -209 123 -472 295 -478 313
-5 15 21 15 71 1z m-54 -176 c293 -254 326 -281 420 -352 l64 -49 2 -400 3
-401 -32 -24 c-39 -30 -247 -152 -495 -290 -46 -26 -94 -47 -106 -47 -12 0
-60 25 -106 56 -46 30 -118 73 -159 95 -41 21 -86 49 -100 62 -14 13 -30 22
-35 21 -6 -2 -35 12 -65 31 -30 19 -50 35 -44 35 5 0 15 -5 22 -12 6 -6 14
-10 16 -7 3 2 -27 26 -65 53 -69 47 -95 54 -68 19 12 -17 12 -17 -4 -3 -16 14
-18 53 -21 395 -2 209 -7 387 -11 397 -5 12 9 27 57 59 138 94 568 450 568
471 0 22 34 -2 159 -109z m-1499 94 c35 -18 70 -74 70 -115 0 -47 -36 -108
-76 -127 -54 -26 -82 -20 -130 29 -40 40 -44 48 -44 93 0 36 6 58 22 78 38 49
108 67 158 42z m2850 -299 c-1 -21 -45 -47 -69 -41 -31 8 -26 29 12 41 45 14
57 14 57 0z m-22 -132 c40 -22 62 -66 62 -125 0 -49 -3 -57 -39 -92 -32 -32
-46 -39 -77 -39 -51 0 -102 32 -120 75 -17 40 -18 108 -3 136 27 50 124 75
177 45z m-3231 -668 c-2 -24 -4 -7 -4 37 0 44 2 63 4 43 2 -21 2 -57 0 -80z
m22 -221 c21 -248 103 -521 233 -780 80 -162 243 -396 389 -565 65 -74 295
-289 412 -385 104 -86 125 -108 51 -55 -138 99 -410 358 -540 515 -264 318
-459 713 -528 1068 -24 120 -45 348 -32 334 2 -2 9 -62 15 -132z m3358 -63
c-3 -3 -12 -4 -19 -1 -8 3 -5 6 6 6 11 1 17 -2 13 -5z m-2717 -158 c6 -8 15
-36 18 -63 l7 -48 160 -110 c125 -88 161 -117 167 -140 5 -17 8 -136 7 -265
-2 -202 0 -240 14 -267 50 -96 -10 -213 -109 -213 -79 0 -147 90 -129 171 4
17 22 46 41 65 29 28 42 34 79 34 l44 0 1 228 0 228 -137 91 c-76 49 -155 100
-175 112 l-38 23 0 78 c0 74 4 86 31 89 4 1 12 -5 19 -13z m1527 -243 c-4
-108 -7 -472 -7 -809 0 -611 0 -613 -21 -619 -11 -4 -23 -4 -27 -1 -3 4 -8
363 -10 799 l-4 792 29 17 c15 9 32 17 37 17 5 1 6 -79 3 -196z m-783 148 c3
-5 6 -364 6 -797 0 -748 -1 -789 -17 -786 -43 8 -43 -1 -43 814 l0 778 24 0
c14 0 27 -4 30 -9z m590 -193 c4 -73 5 -434 4 -803 l-3 -670 -21 -3 c-18 -3
-23 3 -28 40 -3 24 -7 382 -8 796 -2 648 0 755 13 763 33 21 37 10 43 -123z
m-400 50 c11 -94 7 -1289 -5 -1333 -6 -22 -13 -56 -15 -75 -11 -81 -16 -100
-25 -95 -5 4 -9 303 -9 781 l0 774 24 0 c21 0 24 -6 30 -52z m200 -180 c3 -79
6 -349 6 -602 l-1 -459 28 -17 c53 -32 68 -58 67 -111 -2 -52 -24 -90 -72
-121 -85 -56 -215 38 -197 143 8 49 37 85 80 100 l34 13 -6 598 -6 598 30 0
30 0 7 -142z m1214 24 c79 -52 64 -201 -24 -238 -43 -18 -68 -18 -108 1 -37
18 -76 79 -76 119 0 111 117 177 208 118z m-2320 -10 c44 -41 58 -103 37 -158
-25 -65 -58 -87 -122 -82 -77 7 -123 59 -123 140 0 103 136 167 208 100z m540
-1231 c95 -67 418 -229 522 -261 16 -5 19 -9 8 -9 -30 -2 -148 47 -273 113
-123 65 -295 165 -295 172 0 8 13 3 38 -15z m612 -241 c-8 -5 -19 -10 -25 -10
-5 0 -3 5 5 10 8 5 20 10 25 10 6 0 3 -5 -5 -10z"/>
<path d="M5106 8364 c-22 -21 -20 -56 5 -88 43 -54 121 -11 104 57 -11 42 -79
61 -109 31z"/>
<path d="M6534 7562 c-38 -25 -19 -95 30 -112 28 -10 33 -8 54 15 26 31 28 52
6 83 -15 22 -66 30 -90 14z"/>
<path d="M6257 7419 c7 -7 15 -10 18 -7 3 3 -2 9 -12 12 -14 6 -15 5 -6 -5z"/>
<path d="M4746 8148 c-23 -33 -20 -53 15 -82 38 -32 44 -32 74 -1 30 29 31 45
4 79 -26 33 -71 35 -93 4z"/>
<path d="M5494 8126 c-9 -24 0 -51 19 -54 49 -10 90 25 66 54 -15 19 -78 18
-85 0z"/>
<path d="M4389 7986 c-36 -18 -38 -68 -3 -95 30 -23 64 -27 82 -9 13 13 16 66
4 85 -14 22 -57 32 -83 19z"/>
<path d="M5917 7942 c-10 -10 -17 -25 -17 -33 0 -25 40 -60 63 -57 29 4 52 47
43 81 -5 23 -12 27 -40 27 -19 0 -40 -8 -49 -18z"/>
<path d="M3727 7142 c-9 -10 -20 -33 -23 -51 -6 -28 -3 -37 17 -52 48 -37 98
-18 113 42 13 59 -67 105 -107 61z"/>
<path d="M3727 6319 c-46 -27 -41 -105 9 -128 34 -15 48 -14 67 7 25 28 22 84
-6 110 -26 24 -43 27 -70 11z"/>
<path d="M6530 6300 c-11 -11 -20 -31 -20 -45 0 -29 43 -75 70 -75 27 0 50 33
50 72 0 61 -58 90 -100 48z"/>
<path d="M5967 5182 c-10 -10 -17 -34 -17 -54 0 -66 82 -106 114 -55 30 47 29
65 -3 97 -34 34 -70 39 -94 12z"/>
<path d="M5075 7041 c-61 -37 -95 -100 -95 -174 0 -33 8 -53 32 -87 l32 -44
-3 -140 -3 -141 122 0 122 0 -7 30 c-3 17 -12 79 -20 139 l-15 110 24 25 c38
41 66 93 66 124 0 60 -46 134 -102 163 -39 20 -117 18 -153 -5z"/>
<path d="M3696 7558 c-22 -30 -20 -60 4 -86 27 -29 65 -28 95 3 47 46 21 105
-45 105 -29 0 -43 -6 -54 -22z"/>
<path d="M6530 7140 c-20 -20 -26 -65 -12 -87 4 -6 20 -17 35 -22 24 -9 31 -8
53 14 32 32 31 68 -2 94 -33 26 -49 26 -74 1z"/>
<path d="M4290 5187 c-19 -9 -26 -22 -28 -50 -6 -69 76 -116 112 -65 22 31 20
84 -4 108 -23 23 -45 25 -80 7z"/>
<path d="M5110 4540 c-36 -36 -25 -92 23 -116 24 -13 34 -14 52 -4 25 13 45
50 45 80 0 30 -36 60 -70 60 -17 0 -39 -9 -50 -20z"/>
<path d="M6287 5642 c-25 -28 -22 -87 5 -106 48 -34 108 -4 108 54 0 59 -76
94 -113 52z"/>
<path d="M3966 5641 c-28 -31 -31 -83 -7 -105 30 -27 80 -25 103 3 25 32 23
68 -8 96 -32 30 -65 32 -88 6z"/>
<path d="M6025 8310 c3 -5 11 -10 16 -10 6 0 7 5 4 10 -3 6 -11 10 -16 10 -6
0 -7 -4 -4 -10z"/>
<path d="M3033 7880 c0 -30 2 -43 4 -27 2 15 2 39 0 55 -2 15 -4 2 -4 -28z"/>
<path d="M3900 4896 c0 -2 8 -10 18 -17 15 -13 16 -12 3 4 -13 16 -21 21 -21
13z"/>
<path d="M2190 7823 c-52 -19 -63 -66 -30 -120 24 -41 60 -44 95 -8 30 29 34
84 8 107 -22 19 -53 28 -73 21z"/>
<path d="M8032 7798 c-19 -19 -14 -76 8 -98 27 -27 77 -26 101 3 25 30 24 51
-6 82 -28 27 -82 34 -103 13z"/>
<path d="M1319 7741 c-20 -20 -29 -39 -29 -61 0 -22 9 -41 29 -61 49 -49 103
-35 121 32 13 49 7 72 -27 99 -35 27 -59 25 -94 -9z"/>
<path d="M8888 7729 c-32 -18 -23 -76 16 -115 38 -38 54 -41 96 -19 32 17 46
51 36 90 -11 44 -102 71 -148 44z"/>
<path d="M1205 7111 c-24 -26 -27 -35 -22 -73 16 -117 151 -114 164 4 5 40 2
50 -20 72 -37 37 -84 35 -122 -3z"/>
<path d="M8990 7113 c-56 -21 -65 -74 -21 -122 34 -37 87 -43 114 -13 52 57
-20 162 -93 135z"/>
<path d="M9030 6270 c0 -5 -8 -7 -17 -4 -13 4 -11 0 6 -15 30 -27 69 -37 84
-22 8 8 4 11 -18 11 -15 0 -25 3 -22 7 8 7 -11 33 -24 33 -5 0 -9 -4 -9 -10z"/>
<path d="M1179 6349 c-40 -40 -5 -129 50 -129 56 0 112 70 90 113 -17 31 -28
37 -76 37 -31 0 -49 -6 -64 -21z"/>
<path d="M1241 5864 c-12 -15 -21 -39 -21 -53 0 -33 47 -81 79 -81 29 0 81 52
81 80 0 12 -13 35 -29 51 -38 38 -82 39 -110 3z"/>
<path d="M8956 5858 c-24 -34 -19 -66 13 -99 35 -35 60 -37 89 -6 46 49 14
127 -53 127 -24 0 -39 -7 -49 -22z"/>
<path d="M1222 5317 c-62 -35 -73 -114 -23 -159 45 -40 93 -38 137 6 52 52 44
103 -23 148 -32 21 -59 22 -91 5z"/>
<path d="M8984 5312 c-66 -46 -52 -158 22 -176 91 -23 151 105 77 164 -25 20
-78 27 -99 12z"/>
<path d="M8892 4645 c-44 -37 -44 -81 -1 -125 44 -44 93 -40 127 10 40 60 12
125 -59 136 -28 5 -41 1 -67 -21z"/>
<path d="M1311 4653 c-12 -14 -24 -36 -27 -49 -8 -33 22 -84 62 -100 30 -13
38 -13 64 1 48 25 64 79 38 128 -17 34 -39 46 -80 47 -28 0 -41 -6 -57 -27z"/>
<path d="M2187 4332 c-42 -46 -8 -124 60 -138 25 -5 34 -1 52 21 28 36 27 67
-5 104 -30 36 -81 42 -107 13z"/>
<path d="M8034 4324 c-38 -40 -42 -63 -16 -87 25 -23 74 -21 106 4 33 26 37
92 7 109 -35 18 -63 11 -97 -26z"/>
<path d="M3780 3009 c-11 -42 -29 -114 -40 -160 -44 -187 -149 -639 -164 -711
-9 -42 -30 -118 -46 -169 -17 -52 -30 -98 -30 -104 0 -7 552 -10 1650 -10 908
0 1650 3 1650 7 0 4 -20 76 -44 160 -24 84 -49 180 -56 213 -6 33 -27 121 -45
195 -61 245 -114 464 -130 535 -8 39 -20 82 -26 97 l-11 27 -1343 -2 -1344 -1
-21 -77z m1490 -205 c69 -31 121 -82 152 -149 19 -43 23 -66 23 -160 0 -95 -4
-117 -23 -157 -27 -55 -88 -112 -158 -148 -128 -65 -302 -2 -371 134 -21 41
-27 70 -31 147 -6 119 9 184 54 244 58 75 171 129 253 120 24 -3 69 -17 101
-31z m515 -287 c4 -18 7 -55 8 -82 l2 -50 -47 -3 -48 -3 0 85 0 86 40 0 c36 0
40 -2 45 -33z m-1165 -62 l0 -75 -63 0 -62 0 0 70 c0 77 -1 76 83 79 l42 1 0
-75z m-222 -6 c4 -52 -6 -59 -80 -59 l-38 0 0 48 c0 27 3 51 6 54 3 3 28 5 57
4 l52 -1 3 -46z m1667 11 c0 -19 -69 -26 -109 -11 -44 17 -20 32 47 29 47 -2
62 -7 62 -18z"/>
<path d="M5065 2733 c-75 -39 -105 -95 -104 -193 0 -36 3 -59 6 -52 4 9 38 11
146 7 177 -7 207 -12 207 -30 0 -13 -28 -15 -168 -15 -117 0 -172 4 -180 12
-15 15 -16 -3 -1 -71 27 -126 188 -184 288 -103 77 62 100 132 88 274 -7 87
-29 126 -92 160 -59 32 -141 37 -190 11z"/>
</g>
</svg>
